<svg data-v-423bf9ae="" xmlns="http://www.w3.org/2000/svg" viewBox="0 0 496 90" class="iconLeft"><!----><!----><!----><g data-v-423bf9ae="" id="c74b2038-251b-489c-94f9-55fc1d971d77" fill="white" transform="matrix(5.226481044642261,0,0,5.226481044642261,107.12543000817666,0.3658521321268111)"><path d="M4.16 14.15L4.16 14.15Q3.02 14.15 2.23 13.71L2.23 13.71L2.23 13.71Q1.44 13.27 0.99 12.17L0.99 12.17L0.99 12.17Q0.55 11.06 0.55 9.13L0.55 9.13L0.55 9.13Q0.55 7.20 0.99 6.09L0.99 6.09L0.99 6.09Q1.44 4.98 2.23 4.55L2.23 4.55L2.23 4.55Q3.02 4.12 4.16 4.12L4.16 4.12L4.16 4.12Q5.29 4.12 6.08 4.55L6.08 4.55L6.08 4.55Q6.86 4.98 7.31 6.09L7.31 6.09L7.31 6.09Q7.76 7.20 7.76 9.13L7.76 9.13L7.76 9.13Q7.76 11.06 7.31 12.17L7.31 12.17L7.31 12.17Q6.86 13.27 6.08 13.71L6.08 13.71L6.08 13.71Q5.29 14.15 4.16 14.15L4.16 14.15ZM4.16 12.81L4.16 12.81Q5.11 12.81 5.61 12.00L5.61 12.00L5.61 12.00Q6.12 11.20 6.12 9.13L6.12 9.13L6.12 9.13Q6.12 7.06 5.61 6.26L5.61 6.26L5.61 6.26Q5.11 5.46 4.16 5.46L4.16 5.46L4.16 5.46Q3.19 5.46 2.69 6.26L2.69 6.26L2.69 6.26Q2.18 7.06 2.18 9.13L2.18 9.13L2.18 9.13Q2.18 11.20 2.69 12.00L2.69 12.00L2.69 12.00Q3.19 12.81 4.16 12.81L4.16 12.81ZM13.99 7L15.62 7L13.92 14L11.34 14L9.63 7L11.27 7L12.49 12.67L12.77 12.67L13.99 7ZM21.38 6.83L21.38 6.83Q22.88 6.83 23.67 7.82L23.67 7.82L23.67 7.82Q24.47 8.81 24.47 10.51L24.47 10.51L24.47 10.51Q24.47 10.81 24.46 10.95L24.46 10.95L19.64 10.95L19.64 10.95Q19.71 11.96 20.15 12.38L20.15 12.38L20.15 12.38Q20.59 12.81 21.35 12.81L21.35 12.81L21.35 12.81Q22.40 12.81 22.93 11.94L22.93 11.94L24.26 12.67L24.26 12.67Q23.80 13.41 23.02 13.78L23.02 13.78L23.02 13.78Q22.23 14.15 21.34 14.15L21.34 14.15L21.34 14.15Q20.41 14.15 19.66 13.76L19.66 13.76L19.66 13.76Q18.91 13.37 18.47 12.54L18.47 12.54L18.47 12.54Q18.03 11.72 18.03 10.49L18.03 10.49L18.03 10.49Q18.03 9.24 18.48 8.42L18.48 8.42L18.48 8.42Q18.93 7.60 19.68 7.22L19.68 7.22L19.68 7.22Q20.44 6.83 21.38 6.83L21.38 6.83ZM19.68 9.74L22.88 9.74L22.88 9.74Q22.81 8.96 22.44 8.56L22.44 8.56L22.44 8.56Q22.06 8.16 21.35 8.16L21.35 8.16L21.35 8.16Q20.68 8.16 20.24 8.53L20.24 8.53L20.24 8.53Q19.81 8.89 19.68 9.74L19.68 9.74ZM31.77 8.22L31.77 8.22Q31.09 8.22 30.62 8.53L30.62 8.53L30.62 8.53Q30.14 8.83 29.93 9.23L29.93 9.23L29.93 12.67L32.14 12.67L32.14 14L26.64 14L26.64 12.67L28.35 12.67L28.35 8.33L26.64 8.33L26.64 7L29.51 7L29.78 7.85L29.78 7.85Q30.16 7.36 30.73 7.10L30.73 7.10L30.73 7.10Q31.30 6.83 32.05 6.83L32.05 6.83L32.05 6.83Q32.72 6.83 33.25 7.10L33.25 7.10L32.79 8.44L32.79 8.44Q32.72 8.37 32.45 8.29L32.45 8.29L32.45 8.29Q32.17 8.22 31.77 8.22L31.77 8.22ZM41.23 5.53L36.92 5.53L36.92 8.53L40.67 8.53L40.67 9.84L36.92 9.84L36.92 14L35.35 14L35.35 4.20L41.23 4.20L41.23 5.53ZM47.84 12.89L47.84 12.89Q48.15 12.89 48.61 12.82L48.61 12.82L48.61 12.82Q49.07 12.75 49.28 12.71L49.28 12.71L49.28 14L49.28 14Q48.36 14.15 47.54 14.15L47.54 14.15L47.54 14.15Q45.36 14.15 45.36 12.29L45.36 12.29L45.36 4.13L43.23 4.13L43.23 2.80L46.93 2.80L46.93 11.87L46.93 11.87Q46.93 12.50 47.19 12.70L47.19 12.70L47.19 12.70Q47.45 12.89 47.84 12.89L47.84 12.89ZM54.64 14.15L54.64 14.15Q53.23 14.15 52.29 13.27L52.29 13.27L52.29 13.27Q51.35 12.38 51.35 10.49L51.35 10.49L51.35 10.49Q51.35 9.21 51.81 8.39L51.81 8.39L51.81 8.39Q52.26 7.57 53.00 7.20L53.00 7.20L53.00 7.20Q53.75 6.83 54.64 6.83L54.64 6.83L54.64 6.83Q55.54 6.83 56.27 7.20L56.27 7.20L56.27 7.20Q57.01 7.57 57.46 8.39L57.46 8.39L57.46 8.39Q57.92 9.21 57.92 10.49L57.92 10.49L57.92 10.49Q57.92 11.77 57.46 12.59L57.46 12.59L57.46 12.59Q57.01 13.41 56.27 13.78L56.27 13.78L56.27 13.78Q55.54 14.15 54.64 14.15L54.64 14.15ZM54.64 12.81L54.64 12.81Q55.30 12.81 55.78 12.27L55.78 12.27L55.78 12.27Q56.27 11.73 56.27 10.49L56.27 10.49L56.27 10.49Q56.27 9.25 55.78 8.71L55.78 8.71L55.78 8.71Q55.30 8.18 54.64 8.18L54.64 8.18L54.64 8.18Q53.97 8.18 53.49 8.71L53.49 8.71L53.49 8.71Q53.00 9.24 53.00 10.49L53.00 10.49L53.00 10.49Q53.00 11.73 53.49 12.27L53.49 12.27L53.49 12.27Q53.97 12.81 54.64 12.81L54.64 12.81ZM66.82 13.31L65.81 14.28L64.93 13.41L64.93 13.41Q64.01 14.15 62.71 14.15L62.71 14.15L62.71 14.15Q61.21 14.15 60.49 13.59L60.49 13.59L60.49 13.59Q59.78 13.03 59.78 11.86L59.78 11.86L59.78 11.86Q59.78 10.68 60.56 10.13L60.56 10.13L60.56 10.13Q61.33 9.58 62.99 9.58L62.99 9.58L64.41 9.58L64.41 9.21L64.41 9.21Q64.41 8.65 64.08 8.41L64.08 8.41L64.08 8.41Q63.74 8.16 62.99 8.16L62.99 8.16L62.99 8.16Q62.31 8.16 61.89 8.31L61.89 8.31L61.89 8.31Q61.46 8.46 61.19 8.76L61.19 8.76L60.19 7.78L60.19 7.78Q60.62 7.35 61.38 7.09L61.38 7.09L61.38 7.09Q62.13 6.83 63.10 6.83L63.10 6.83L63.10 6.83Q64.44 6.83 65.21 7.36L65.21 7.36L65.21 7.36Q65.98 7.88 65.98 8.85L65.98 8.85L65.98 12.47L66.82 13.31ZM61.33 11.86L61.33 11.86Q61.33 12.39 61.68 12.61L61.68 12.61L61.68 12.61Q62.03 12.84 62.94 12.84L62.94 12.84L62.94 12.84Q63.38 12.84 63.77 12.68L63.77 12.68L63.77 12.68Q64.16 12.53 64.41 12.29L64.41 12.29L64.41 10.82L63.46 10.82L63.46 10.82Q62.54 10.82 62.09 10.92L62.09 10.92L62.09 10.92Q61.64 11.02 61.49 11.23L61.49 11.23L61.49 11.23Q61.33 11.44 61.33 11.86L61.33 11.86ZM72.73 2.80L74.30 2.80L74.30 14L73.07 14L72.80 13.20L72.80 13.20Q72.06 14.15 70.87 14.15L70.87 14.15L70.87 14.15Q69.45 14.15 68.68 13.25L68.68 13.25L68.68 13.25Q67.90 12.35 67.90 10.49L67.90 10.49L67.90 10.49Q67.90 8.61 68.61 7.73L68.61 7.73L68.61 7.73Q69.33 6.85 70.73 6.85L70.73 6.85L70.73 6.85Q71.34 6.85 71.86 7.08L71.86 7.08L71.86 7.08Q72.37 7.31 72.73 7.71L72.73 7.71L72.73 2.80ZM71.18 12.81L71.18 12.81Q71.75 12.81 72.16 12.47L72.16 12.47L72.16 12.47Q72.56 12.14 72.73 11.65L72.73 11.65L72.73 9.42L72.73 9.42Q72.51 8.92 72.08 8.55L72.08 8.55L72.08 8.55Q71.65 8.19 71.04 8.19L71.04 8.19L71.04 8.19Q70.15 8.19 69.81 8.71L69.81 8.71L69.81 8.71Q69.47 9.24 69.47 10.49L69.47 10.49L69.47 10.49Q69.47 11.70 69.87 12.26L69.87 12.26L69.87 12.26Q70.28 12.81 71.18 12.81L71.18 12.81Z"></path></g><!----><g data-v-423bf9ae="" id="5b7a0b2d-947a-4cac-8df1-c4372b0173fa" transform="matrix(1.125,0,0,1.125,-11.25,-11.25)" stroke="none" fill="white"><path d="M65 35V10H10v55h25v25h55V35H65zm19 49H41V41h43v43z"></path></g><!----></svg>